<svg viewBox="0 0 242 91" xmlns="http://www.w3.org/2000/svg">
  <path
    d="M0.244141 45.75C0.244141 37.0833 2.03581 29.375 5.61914 22.625C9.28581 15.7917 14.4525 10.5 21.1191 6.75C27.7858 2.91667 35.4525 0.999998 44.1191 0.999998C55.1191 0.999998 64.3691 3.95833 71.8691 9.875C79.3691 15.7083 84.2025 23.6667 86.3691 33.75H59.9941C58.4108 30.4167 56.2025 27.875 53.3691 26.125C50.6191 24.375 47.4108 23.5 43.7441 23.5C38.0775 23.5 33.5358 25.5417 30.1191 29.625C26.7858 33.625 25.1191 39 25.1191 45.75C25.1191 52.5833 26.7858 58.0417 30.1191 62.125C33.5358 66.125 38.0775 68.125 43.7441 68.125C47.4108 68.125 50.6191 67.25 53.3691 65.5C56.2025 63.75 58.4108 61.2083 59.9941 57.875H86.3691C84.2025 67.9583 79.3691 75.9583 71.8691 81.875C64.3691 87.7083 55.1191 90.625 44.1191 90.625C35.4525 90.625 27.7858 88.75 21.1191 85C14.4525 81.1667 9.28581 75.875 5.61914 69.125C2.03581 62.2917 0.244141 54.5 0.244141 45.75ZM131.221 90.875C120.971 90.875 112.554 88.4583 105.971 83.625C99.3874 78.7083 95.8457 71.7083 95.3457 62.625H121.471C121.721 65.7083 122.637 67.9583 124.221 69.375C125.804 70.7917 127.846 71.5 130.346 71.5C132.596 71.5 134.429 70.9583 135.846 69.875C137.346 68.7083 138.096 67.125 138.096 65.125C138.096 62.5417 136.887 60.5417 134.471 59.125C132.054 57.7083 128.137 56.125 122.721 54.375C116.971 52.4583 112.304 50.625 108.721 48.875C105.221 47.0417 102.137 44.4167 99.4707 41C96.8874 37.5 95.5957 32.9583 95.5957 27.375C95.5957 21.7083 97.0124 16.875 99.8457 12.875C102.679 8.79166 106.596 5.70833 111.596 3.62499C116.596 1.54166 122.262 0.499997 128.596 0.499997C138.846 0.499997 147.012 2.91666 153.096 7.74999C159.262 12.5 162.554 19.2083 162.971 27.875H136.346C136.262 25.2083 135.429 23.2083 133.846 21.875C132.346 20.5417 130.387 19.875 127.971 19.875C126.137 19.875 124.637 20.4167 123.471 21.5C122.304 22.5833 121.721 24.125 121.721 26.125C121.721 27.7917 122.346 29.25 123.596 30.5C124.929 31.6667 126.554 32.7083 128.471 33.625C130.387 34.4583 133.221 35.5417 136.971 36.875C142.554 38.7917 147.137 40.7083 150.721 42.625C154.387 44.4583 157.512 47.0833 160.096 50.5C162.762 53.8333 164.096 58.0833 164.096 63.25C164.096 68.5 162.762 73.2083 160.096 77.375C157.512 81.5417 153.721 84.8333 148.721 87.25C143.804 89.6667 137.971 90.875 131.221 90.875ZM208.735 90.875C198.485 90.875 190.069 88.4583 183.485 83.625C176.902 78.7083 173.36 71.7083 172.86 62.625H198.985C199.235 65.7083 200.152 67.9583 201.735 69.375C203.319 70.7917 205.36 71.5 207.86 71.5C210.11 71.5 211.944 70.9583 213.36 69.875C214.86 68.7083 215.61 67.125 215.61 65.125C215.61 62.5417 214.402 60.5417 211.985 59.125C209.569 57.7083 205.652 56.125 200.235 54.375C194.485 52.4583 189.819 50.625 186.235 48.875C182.735 47.0417 179.652 44.4167 176.985 41C174.402 37.5 173.11 32.9583 173.11 27.375C173.11 21.7083 174.527 16.875 177.36 12.875C180.194 8.79166 184.11 5.70833 189.11 3.62499C194.11 1.54166 199.777 0.499997 206.11 0.499997C216.36 0.499997 224.527 2.91666 230.61 7.74999C236.777 12.5 240.069 19.2083 240.485 27.875H213.86C213.777 25.2083 212.944 23.2083 211.36 21.875C209.86 20.5417 207.902 19.875 205.485 19.875C203.652 19.875 202.152 20.4167 200.985 21.5C199.819 22.5833 199.235 24.125 199.235 26.125C199.235 27.7917 199.86 29.25 201.11 30.5C202.444 31.6667 204.069 32.7083 205.985 33.625C207.902 34.4583 210.735 35.5417 214.485 36.875C220.069 38.7917 224.652 40.7083 228.235 42.625C231.902 44.4583 235.027 47.0833 237.61 50.5C240.277 53.8333 241.61 58.0833 241.61 63.25C241.61 68.5 240.277 73.2083 237.61 77.375C235.027 81.5417 231.235 84.8333 226.235 87.25C221.319 89.6667 215.485 90.875 208.735 90.875Z" />
</svg>