<svg viewBox="0 0 513 91" xmlns="http://www.w3.org/2000/svg">
  <path
    d="M44.9434 90L27.4434 57.5H24.8184V90H0.31836V1.87499H38.9434C46.0267 1.87499 52.0267 3.125 56.9434 5.625C61.86 8.04166 65.5684 11.4167 68.0684 15.75C70.5684 20 71.8184 24.7917 71.8184 30.125C71.8184 36.125 70.1517 41.4167 66.8184 46C63.5684 50.5 58.7767 53.7083 52.4434 55.625L72.3184 90H44.9434ZM24.8184 40.75H36.9434C40.2767 40.75 42.7767 39.9583 44.4434 38.375C46.11 36.7917 46.9434 34.5 46.9434 31.5C46.9434 28.6667 46.0684 26.4583 44.3184 24.875C42.6517 23.2083 40.1934 22.375 36.9434 22.375H24.8184V40.75ZM149.96 54.125C149.96 56.0417 149.835 57.9583 149.585 59.875H103.21C103.46 63.7083 104.502 66.5833 106.335 68.5C108.252 70.3333 110.668 71.25 113.585 71.25C117.668 71.25 120.585 69.4167 122.335 65.75H148.46C147.377 70.5833 145.252 74.9167 142.085 78.75C139.002 82.5 135.085 85.4583 130.335 87.625C125.585 89.7917 120.335 90.875 114.585 90.875C107.668 90.875 101.502 89.4167 96.085 86.5C90.7516 83.5833 86.5433 79.4167 83.46 74C80.46 68.5833 78.96 62.2083 78.96 54.875C78.96 47.5417 80.46 41.2083 83.46 35.875C86.46 30.4583 90.6266 26.2917 95.96 23.375C101.377 20.4583 107.585 19 114.585 19C121.502 19 127.627 20.4167 132.96 23.25C138.293 26.0833 142.46 30.1667 145.46 35.5C148.46 40.75 149.96 46.9583 149.96 54.125ZM124.96 48C124.96 45 123.96 42.6667 121.96 41C119.96 39.25 117.46 38.375 114.46 38.375C111.46 38.375 109.002 39.2083 107.085 40.875C105.168 42.4583 103.918 44.8333 103.335 48H124.96ZM155.986 54.875C155.986 47.625 157.278 41.2917 159.861 35.875C162.528 30.4583 166.111 26.2917 170.611 23.375C175.195 20.4583 180.278 19 185.861 19C190.695 19 194.861 19.9583 198.361 21.875C201.861 23.7917 204.57 26.375 206.486 29.625V19.875H230.986V90H206.486V80.25C204.57 83.5 201.82 86.0833 198.236 88C194.736 89.9167 190.611 90.875 185.861 90.875C180.278 90.875 175.195 89.4167 170.611 86.5C166.111 83.5833 162.528 79.4167 159.861 74C157.278 68.5 155.986 62.125 155.986 54.875ZM206.486 54.875C206.486 50.375 205.236 46.8333 202.736 44.25C200.32 41.6667 197.32 40.375 193.736 40.375C190.07 40.375 187.028 41.6667 184.611 44.25C182.195 46.75 180.986 50.2917 180.986 54.875C180.986 59.375 182.195 62.9583 184.611 65.625C187.028 68.2083 190.07 69.5 193.736 69.5C197.32 69.5 200.32 68.2083 202.736 65.625C205.236 63.0417 206.486 59.4583 206.486 54.875ZM240.947 54.875C240.947 47.625 242.447 41.2917 245.447 35.875C248.447 30.4583 252.614 26.2917 257.947 23.375C263.364 20.4583 269.531 19 276.447 19C285.364 19 292.864 21.4583 298.947 26.375C305.031 31.2083 308.947 38 310.697 46.75H284.697C283.197 42.1667 280.281 39.875 275.947 39.875C272.864 39.875 270.406 41.1667 268.572 43.75C266.822 46.25 265.947 49.9583 265.947 54.875C265.947 59.7917 266.822 63.5417 268.572 66.125C270.406 68.7083 272.864 70 275.947 70C280.364 70 283.281 67.7083 284.697 63.125H310.697C308.947 71.7917 305.031 78.5833 298.947 83.5C292.864 88.4167 285.364 90.875 276.447 90.875C269.531 90.875 263.364 89.4167 257.947 86.5C252.614 83.5833 248.447 79.4167 245.447 74C242.447 68.5833 240.947 62.2083 240.947 54.875ZM362.25 69.125V90H351.625C333.708 90 324.75 81.125 324.75 63.375V40.25H316.125V19.875H324.75V2.875H349.375V19.875H362.125V40.25H349.375V63.75C349.375 65.6667 349.792 67.0417 350.625 67.875C351.542 68.7083 353.042 69.125 355.125 69.125H362.25ZM431.862 1.87499V60.25C431.862 70.1667 429.154 77.75 423.737 83C418.404 88.25 411.029 90.875 401.612 90.875C391.612 90.875 383.612 88.0833 377.612 82.5C371.696 76.9167 368.737 68.875 368.737 58.375H392.987C393.071 65.2917 395.612 68.75 400.612 68.75C405.112 68.75 407.362 65.9167 407.362 60.25V1.87499H431.862ZM479.735 90.875C469.485 90.875 461.069 88.4583 454.485 83.625C447.902 78.7083 444.36 71.7083 443.86 62.625H469.985C470.235 65.7083 471.152 67.9583 472.735 69.375C474.319 70.7917 476.36 71.5 478.86 71.5C481.11 71.5 482.944 70.9583 484.36 69.875C485.86 68.7083 486.61 67.125 486.61 65.125C486.61 62.5417 485.402 60.5417 482.985 59.125C480.569 57.7083 476.652 56.125 471.235 54.375C465.485 52.4583 460.819 50.625 457.235 48.875C453.735 47.0417 450.652 44.4167 447.985 41C445.402 37.5 444.11 32.9583 444.11 27.375C444.11 21.7083 445.527 16.875 448.36 12.875C451.194 8.79166 455.11 5.70833 460.11 3.62499C465.11 1.54166 470.777 0.499997 477.11 0.499997C487.36 0.499997 495.527 2.91666 501.61 7.74999C507.777 12.5 511.069 19.2083 511.485 27.875H484.86C484.777 25.2083 483.944 23.2083 482.36 21.875C480.86 20.5417 478.902 19.875 476.485 19.875C474.652 19.875 473.152 20.4167 471.985 21.5C470.819 22.5833 470.235 24.125 470.235 26.125C470.235 27.7917 470.86 29.25 472.11 30.5C473.444 31.6667 475.069 32.7083 476.985 33.625C478.902 34.4583 481.735 35.5417 485.485 36.875C491.069 38.7917 495.652 40.7083 499.235 42.625C502.902 44.4583 506.027 47.0833 508.61 50.5C511.277 53.8333 512.61 58.0833 512.61 63.25C512.61 68.5 511.277 73.2083 508.61 77.375C506.027 81.5417 502.235 84.8333 497.235 87.25C492.319 89.6667 486.485 90.875 479.735 90.875Z" />
</svg>