<svg viewBox="0 0 275 88" xmlns="http://www.w3.org/2000/svg">
  <path
    d="M126.006 0.249997L103.131 88H77.2559L63.2559 30.25L48.7559 88H22.8809L0.630859 0.249997H23.5059L36.1309 64.125L51.7559 0.249997H75.2559L90.2559 64.125L103.006 0.249997H126.006ZM158.101 17.375V35.125H186.726V51.625H158.101V70.875H190.476V88H136.726V0.249997H190.476V17.375H158.101ZM257.478 43C262.561 44.0833 266.644 46.625 269.728 50.625C272.811 54.5417 274.353 59.0417 274.353 64.125C274.353 71.4583 271.769 77.2917 266.603 81.625C261.519 85.875 254.394 88 245.228 88H204.353V0.249997H243.853C252.769 0.249997 259.728 2.29166 264.728 6.37499C269.811 10.4583 272.353 16 272.353 23C272.353 28.1667 270.978 32.4583 268.228 35.875C265.561 39.2917 261.978 41.6667 257.478 43ZM225.728 35.75H239.728C243.228 35.75 245.894 35 247.728 33.5C249.644 31.9167 250.603 29.625 250.603 26.625C250.603 23.625 249.644 21.3333 247.728 19.75C245.894 18.1667 243.228 17.375 239.728 17.375H225.728V35.75ZM241.478 70.75C245.061 70.75 247.811 69.9583 249.728 68.375C251.728 66.7083 252.728 64.3333 252.728 61.25C252.728 58.1667 251.686 55.75 249.603 54C247.603 52.25 244.811 51.375 241.228 51.375H225.728V70.75H241.478Z" />
</svg>